<?xml version="1.0" standalone="no"?>
<!DOCTYPE svg PUBLIC "-//W3C//DTD SVG 20010904//EN"
 "http://www.w3.org/TR/2001/REC-SVG-20010904/DTD/svg10.dtd">
<svg version="1.0" xmlns="http://www.w3.org/2000/svg"
 width="152.000000pt" height="152.000000pt" viewBox="0 0 152.000000 152.000000"
 preserveAspectRatio="xMidYMid meet">

<g transform="translate(0.000000,152.000000) scale(0.100000,-0.100000)"
fill="#000000" stroke="none">
<path d="M0 760 l0 -760 760 0 760 0 0 760 0 760 -760 0 -760 0 0 -760z m550
148 c24 -13 50 -34 59 -48 l15 -25 -30 26 c-36 32 -67 49 -91 49 -15 0 -16 -2
-3 -10 12 -7 8 -10 -15 -10 -111 -1 -163 -146 -79 -220 49 -43 109 -42 159 2
20 17 43 45 51 62 l14 31 -3 -37 c-2 -20 1 -34 5 -32 16 10 7 -24 -13 -50 -56
-72 -167 -86 -236 -30 -102 83 -95 230 12 291 51 29 99 29 155 1z m221 1 c15
-28 -7 -54 -22 -26 -18 31 -29 18 -29 -33 0 -47 11 -63 26 -39 3 6 0 15 -7 20
-11 6 -11 11 -2 20 22 22 43 2 43 -41 0 -39 -1 -40 -33 -40 -46 0 -57 15 -57
80 0 31 5 61 12 68 19 19 56 14 69 -9z m98 -36 c6 -32 14 -68 17 -80 8 -28
-13 -31 -32 -5 -13 16 -15 16 -28 0 -15 -20 -36 -24 -36 -7 0 5 7 41 16 80 12
54 20 69 34 69 13 0 20 -13 29 -57z m85 22 c8 -41 21 -39 29 5 5 21 12 30 27
30 18 0 20 -6 20 -80 0 -64 -3 -80 -15 -80 -10 0 -15 11 -16 33 0 30 -1 31
-11 10 -6 -13 -17 -23 -24 -23 -7 0 -15 10 -17 23 -3 16 -5 13 -6 -10 -1 -22
-6 -33 -16 -33 -12 0 -15 16 -15 80 0 72 2 80 19 80 14 0 21 -10 25 -35z m186
20 c0 -10 -10 -15 -31 -15 -24 0 -30 -4 -27 -17 2 -10 14 -19 26 -21 28 -4 24
-26 -6 -30 -34 -5 -27 -32 8 -32 20 0 30 -5 30 -15 0 -11 -12 -15 -45 -15
l-45 0 0 80 0 80 45 0 c33 0 45 -4 45 -15z m-403 -205 c8 -43 20 -45 27 -5 5
26 12 35 26 35 18 0 20 -7 20 -80 0 -64 -3 -80 -15 -80 -10 0 -15 11 -16 33
-1 23 -3 26 -6 10 -6 -32 -29 -29 -41 5 -10 27 -10 26 -11 -10 -1 -27 -5 -38
-16 -38 -12 0 -15 16 -15 80 0 74 2 80 20 80 15 0 22 -9 27 -30z m172 -32 c7
-35 14 -71 17 -80 7 -22 -21 -25 -30 -3 -3 8 -12 15 -21 15 -8 0 -15 -7 -15
-15 0 -8 -7 -15 -15 -15 -20 0 -20 6 10 138 3 13 13 22 24 22 15 0 21 -13 30
-62z m84 25 l15 -38 1 38 c1 26 6 37 16 37 12 0 15 -16 15 -80 0 -66 -3 -80
-16 -80 -8 0 -20 15 -27 33 l-11 32 -6 -29 c-3 -16 -11 -31 -17 -34 -10 -3
-13 17 -13 77 0 92 16 108 43 44z m97 -43 c0 -64 -3 -80 -15 -80 -12 0 -15 16
-15 80 0 64 3 80 15 80 12 0 15 -16 15 -80z m104 9 c20 -87 20 -89 1 -89 -8 0
-15 7 -15 15 0 8 -7 15 -15 15 -9 0 -18 -7 -21 -15 -10 -25 -37 -18 -31 8 3
12 11 48 18 80 9 43 17 57 30 57 13 0 21 -17 33 -71z"/>
<path d="M830 840 c0 -5 5 -10 11 -10 5 0 7 5 4 10 -3 6 -8 10 -11 10 -2 0 -4
-4 -4 -10z"/>
</g>
</svg>
